<?xml version="1.0" encoding="utf-8"?>
<!-- Generator: Adobe Illustrator 22.0.1, SVG Export Plug-In . SVG Version: 6.00 Build 0)  -->
<svg version="1.1" id="Layer_1" xmlns="http://www.w3.org/2000/svg" xmlns:xlink="http://www.w3.org/1999/xlink" x="0px" y="0px"
	 width="167.9px" height="29px" viewBox="0 0 167.9 29" style="enable-background:new 0 0 167.9 29;" xml:space="preserve">
<style type="text/css">
	.st0{fill:#04824E;}
	.st1{fill:#F58223;}
	.st2{fill:#7EBA47;}
</style>
<g>
	<path class="st0" d="M9.4,1v6.9c0,0.9,0,1.8,0.1,2.6c-0.5-0.7-1-1.4-1.6-1.7C7.2,8.2,6.3,7.9,5.4,7.9c-3,0-5.5,3-5.5,7.7
		c0,5,2.3,8,5.5,8c1,0,1.8-0.3,2.5-0.7c0.7-0.5,1.3-1.1,1.8-2v2.2h6.2V1H9.4z M7.9,18c-1,0-1.7-0.9-1.7-2.2c0-1.3,0.7-2.1,1.7-2.1
		c1,0,1.7,0.9,1.7,2.1C9.6,17.1,8.9,18,7.9,18"/>
	<path class="st0" d="M34.3,8.3h6.3v2.1c1.1-1.7,2.2-2.5,3.8-2.5c1.9,0,3.1,1,3.9,3.1c1-2.1,2.6-3.1,4.4-3.1c2.6,0,4.4,2,4.4,5.3
		v9.9h-6.4v-7.5c0-1.2-0.1-1.9-0.8-1.9c-0.7,0-1,0.7-1,1.9v7.5h-6.3v-7.5c0-1.2-0.1-1.9-0.9-1.9c-0.7,0-1,0.7-1,1.9v7.5h-6.4V8.3z"
		/>
	<path class="st0" d="M25,7.9c-4.7,0-8,3.6-8,7.9c0,4.4,3.3,8,8,8c4.6,0,7.9-3.6,7.9-8C33,11.4,29.7,7.9,25,7.9 M25,17.8
		c-1,0-1.6-0.8-1.6-2.1c0-1.2,0.7-2,1.6-2c1,0,1.6,0.7,1.6,2C26.7,17,26,17.8,25,17.8"/>
	<path class="st0" d="M67.2,7L67.2,7c-5.2,0-8.7,3.9-8.7,8.7c0,4.7,3.6,8.7,8.7,8.7h0c5.1,0,8.7-3.9,8.7-8.7
		C75.9,10.9,72.2,7,67.2,7 M72.3,21.5h-5.2h-5.2V14h3.3v6.6l1.9-0.4l1.8-0.4V14h3.4V21.5z"/>
	<polygon class="st1" points="70.1,10.3 67.1,7.7 64.3,10.3 61.3,12.8 67.1,12.8 72.9,12.8 	"/>
	<polygon class="st2" points="166,3.1 159.5,3.1 159.5,8 157.6,8 157.6,13.5 159.5,13.5 159.5,22.6 166,22.6 166,13.5 167.9,13.5 
		167.9,8 166,8 	"/>
	<rect x="149.5" y="0.7" class="st2" width="6.5" height="21.9"/>
	<path class="st2" d="M137.8,15c-0.5-0.6-1.4-1-2.8-1.4c-0.2-0.1-0.3-0.1-0.6-0.2c-1-0.2-1.4-0.5-1.4-0.8c0-0.3,0.1-0.4,0.2-0.6
		c0.2-0.1,0.4-0.2,0.7-0.2c0.4,0,0.8,0.1,1.2,0.3c0.5,0.2,1,0.5,1.5,1l1.6-4.3c-0.7-0.4-1.5-0.7-2.3-0.9c-0.9-0.1-1.7-0.3-2.6-0.3
		c-1.8,0-3.3,0.5-4.4,1.4c-1.1,0.9-1.7,2.2-1.7,3.7c0,1.1,0.2,1.9,0.7,2.6c0.6,0.6,1.5,1.1,2.7,1.4c0.1,0.1,0.3,0.1,0.6,0.2
		c0.7,0.2,1.1,0.4,1.1,0.8c0,0.3-0.1,0.4-0.3,0.6c-0.2,0.2-0.4,0.3-0.7,0.3c-0.4,0-0.9-0.2-1.5-0.4c-0.6-0.3-1.2-0.7-1.9-1.2
		l-1.7,4.5c1,0.5,1.9,0.9,2.9,1.2c1,0.3,2,0.4,3.1,0.4c1.9,0,3.5-0.5,4.6-1.4c1.1-1,1.7-2.4,1.7-4C138.7,16.5,138.4,15.6,137.8,15"
		/>
	<path class="st2" d="M119.4,15.1c0,1-0.1,1.7-0.2,2.1c-0.1,0.3-0.5,0.4-0.9,0.4c-0.4,0-0.6-0.2-0.8-0.4c-0.2-0.3-0.2-1-0.2-2.1V8
		h-6.4v7.8c0,2.6,0.5,4.5,1.7,5.6c1.2,1.2,3.1,1.7,5.6,1.7c2.6,0,4.5-0.5,5.7-1.7c1.2-1.1,1.8-3,1.8-5.6V8h-6.5V15.1z"/>
	<path class="st2" d="M106,0c-1,0-1.9,0.3-2.5,0.9c-0.7,0.6-1,1.4-1,2.4c0,1.1,0.3,1.9,1,2.5c0.6,0.6,1.5,1,2.5,1c1.1,0,2-0.4,2.5-1
		c0.7-0.6,1-1.5,1-2.5c0-1.1-0.3-1.8-0.9-2.4C108,0.3,107.1,0,106,0"/>
	<rect x="102.7" y="8" class="st2" width="6.6" height="14.7"/>
	<rect x="94.3" y="0.6" class="st2" width="6.6" height="22"/>
	<path class="st2" d="M91.6,9.6c-1-1.4-2.3-2.2-3.9-2.2c-0.9,0-1.6,0.3-2.3,0.6c-0.1,0.1-0.2,0.1-0.3,0.2c-0.6,0.3-1.1,1-1.6,1.7V8
		h-6.2V29h6.4v-5.9c0-0.4,0-1-0.1-1.4c0-0.4,0-0.8,0-1.1c0.4,0.8,1,1.4,1.5,1.8c0.1,0,0.2,0,0.3,0.1c0.6,0.4,1.4,0.6,2.3,0.6
		c1.5,0,2.8-0.7,3.8-2.2c1-1.4,1.5-3.3,1.5-5.6C93.1,13,92.6,11.1,91.6,9.6 M86.4,16.8c-0.3,0.4-0.7,0.6-1.3,0.7
		c-0.5,0-0.9-0.3-1.2-0.7c-0.3-0.4-0.4-1-0.4-1.5c0-0.7,0.1-1.1,0.4-1.6c0.3-0.4,0.7-0.6,1.2-0.6c0.6,0,1,0.2,1.3,0.6
		c0.3,0.4,0.4,0.9,0.4,1.6C86.8,15.9,86.7,16.4,86.4,16.8"/>
	<path class="st2" d="M143.9,16.2c-1,0-1.9,0.3-2.5,0.9c-0.7,0.7-1,1.4-1,2.4c0,1.1,0.3,1.9,1,2.5c0.6,0.6,1.5,1,2.5,1
		c1.1,0,2-0.3,2.5-1c0.7-0.6,1-1.5,1-2.5c0-1-0.3-1.8-0.9-2.4C145.9,16.5,145,16.2,143.9,16.2"/>
	<path class="st0" d="M-2.5,19.5"/>
</g>
</svg>
