<?xml version="1.0" encoding="utf-8"?>

<svg version="1.1" id="Layer_1" xmlns="http://www.w3.org/2000/svg" xmlns:xlink="http://www.w3.org/1999/xlink" x="0px" y="0px"
	 viewBox="0 0 320 116" style="enable-background:new 0 0 320 116;" xml:space="preserve">


 <style type="text/css">.st0{fill:#00D053;}
	.st1{enable-background:new    ;}</style>

 <g>
  <title>background</title>
  <rect fill="none" id="canvas_background" height="49" width="136" viewBox="0 0 49 136" y="-1" x="-1"/>
 </g>
 <g>
  <title>Layer 1</title>
  <g id="svg_1">
   <g id="svg_2">
    <g id="svg_3">
     <path id="svg_4" d="m51.3,65.1c-8.1,-2.9 -14,-8.1 -17.8,-15.7c3.9,-3.1 5.6,-6.6 3.4,-10.8c-1.8,-3.5 -5.6,-5 -9.4,-3.7c-3.4,1.2 -5.5,4.9 -4.9,8.5c2.8,16.8 18.1,30.6 35,31.6c4.6,0.3 8.3,-2.4 8.8,-6.5s-2,-7.7 -6,-8.6c-3.5,-0.6 -6.2,0.9 -9.1,5.2z" class="st0"/>
    </g>
   </g>
   <g id="svg_5">
    <g id="svg_6">
     <path id="svg_7" d="m8.8,70c-1.9,0.3 -3.7,0.9 -5.6,1.8c3.7,9.9 10.8,18.2 20.4,23c3.3,1.6 6.5,3.1 9.8,4.6c0.6,-1.9 1,-3.9 1.1,-5.9c-2.8,-1.3 -5.6,-2.6 -8.3,-4c-8.2,-4 -14.2,-11.1 -17.4,-19.5z" class="st0"/>
    </g>
    <g id="svg_8">
     <path id="svg_9" d="m71.6,93.9c-0.3,-0.7 -0.7,-1.4 -1.1,-2.2c0.1,-0.1 0.1,-0.1 0.2,-0.1c1.1,-0.9 2,-1.6 2.8,-2.4c14.3,-12.8 18.8,-33 11.2,-50.3c-7.5,-17.1 -26.1,-28.5 -43.4,-26.5c-20.2,2.2 -36.2,16.3 -39.9,35.1c-1.3,6.3 -1.2,12.7 0.2,18.7c1.8,-0.7 3.7,-1.4 5.6,-1.7c-1.1,-5.1 -1.2,-10.5 -0.1,-15.9c3.2,-16.2 17.2,-28.5 34.8,-30.5c1,-0.1 2.1,-0.1 3.1,-0.1c13.8,0 28.4,9.7 34.4,23.3c6.6,14.9 2.6,32.4 -9.8,43.6c-0.8,0.7 -1.6,1.4 -2.7,2.3c-0.6,0.5 -1.2,1 -2,1.7l-1.8,1.5l1,2c0.7,1.4 1.5,2.8 2.2,4.3c1.8,3.5 3.5,6.6 4.9,10c0.3,0.7 0.4,1.5 0.5,2.1c-0.5,0.1 -1.4,0 -1.7,-0.1c-3.3,-1.4 -6.6,-2.7 -10,-4.1c-6.6,-2.7 -13.2,-5.4 -19.9,-8.3c-0.3,2 -0.7,3.9 -1.4,5.8c6.4,2.8 12.8,5.4 19.1,7.9c3.3,1.4 6.6,2.7 9.9,4.1c0.9,0.3 2.2,0.6 3.5,0.6c1.9,0 3.9,-0.5 5.1,-1.9c1.8,-2.3 1.2,-6.2 0.2,-8.3c-1.4,-3.8 -3.1,-7.1 -4.9,-10.6z" class="st0"/>
    </g>
    <g id="svg_10">
     <path id="svg_11" d="m8.8,70c-0.7,-1.8 -1.2,-3.7 -1.6,-5.6c-1.9,0.4 -3.7,0.9 -5.6,1.8c0.4,1.8 1,3.7 1.6,5.5c1.9,-0.8 3.7,-1.4 5.6,-1.7z" class="st0"/>
    </g>
    <g id="svg_12">
     <path id="svg_13" d="m34.6,93.6c-0.1,2 -0.5,4 -1.1,5.9c1.8,0.8 3.5,1.6 5.4,2.4c0.6,-1.8 1.1,-3.8 1.4,-5.8c-1.9,-0.9 -3.8,-1.7 -5.7,-2.5z" class="st0"/>
    </g>
   </g>
   <g id="svg_14">
    <path id="svg_15" d="m298.5,57.1c0,4.6 -0.1,9.1 0,13.5c0.1,3.9 0.1,7.9 0.6,11.8c0.6,5.1 3.4,8.6 8.6,9.7c1.9,0.4 3.8,0.6 5.8,0.7c4.3,0.4 4.6,0.1 4.5,-4.1c0,-2.2 -0.4,-2.5 -2.5,-2.6c-0.7,0 -1.6,0 -2.3,-0.1c-4.1,-0.3 -6.3,-1.9 -7.1,-5.2c-0.3,-1.1 -0.4,-2.2 -0.4,-3.3c-0.1,-6.5 -0.1,-13 -0.1,-19.5c0,-0.3 0.1,-0.6 0.1,-1.1c3.5,0 6.9,0 10.2,0c1.3,0 2,-0.6 1.9,-1.8c-0.1,-1.6 0.9,-3.7 -1.2,-4.8c-0.3,-0.2 -0.9,-0.1 -1.3,-0.1c-2,0 -3.9,0 -5.8,0c-1.3,0 -2.6,0 -4,0c0,-2 0,-3.7 0,-5.4c0,-4.2 0,-4.2 -4.3,-4.2c-2.6,0 -2.9,0.3 -2.9,2.8c0,2.2 0,4.4 0,6.7c-1.5,0 -2.7,0 -4,0c-4.7,0 -4.7,0 -4.5,4.7c0.1,1.4 0.7,2 2.1,1.9c2.3,0.4 4.3,0.4 6.6,0.4z" class="st0"/>
   </g>
   <g id="svg_16">
    <path id="svg_17" d="m284.1,62.3c0,-8.5 0,-17.1 0,-25.6c0,-4.2 0,-4.2 -4.3,-4.1c-2.4,0.1 -2.8,0.3 -2.8,2.8c0,17.4 0,34.7 0,52.1c0,4.5 -0.3,4.3 4.4,4.3c2.4,0 2.6,-0.2 2.6,-2.6c0.1,-9 0.1,-18 0.1,-26.9z" class="st0"/>
   </g>
   <g id="svg_18">
    <path id="svg_19" d="m169.7,50.3c0,-11.8 0,-23.6 0,-35.4c0,-6 0,-6 -6,-5.9c-3.4,0.1 -3.8,0.5 -3.8,3.9c0,24.1 0,48.1 0,72.2c0,6.4 -0.6,6.2 6.1,6.2c3.4,0 3.7,-0.3 3.7,-3.7c0,-12.5 0,-24.9 0,-37.3z" class="st0"/>
   </g>
   <g id="svg_20">
    <path id="svg_21" d="m183.9,62.4c0,7.7 0,15.4 0,23.1c0,5.8 0,5.8 5.8,5.8c3.9,0 4,-0.1 4,-4.1c0,-15.7 0,-31.3 0,-46.9c0,-6.4 0.8,-6.4 -6.4,-6.3c-2.8,0 -3.3,0.5 -3.3,3.5c-0.1,8.2 -0.1,16.5 -0.1,24.9z" class="st0"/>
   </g>
   <g id="svg_22">
    <path id="svg_23" d="m263.5,92.2c3.5,0.1 4.3,-0.7 4.4,-4.1c0.1,-3.5 -0.9,-4.5 -4.1,-4.5c-3.3,0 -4.4,1 -4.4,4.3c-0.1,3.4 0.7,4.3 4.1,4.3z" class="st0"/>
   </g>
   <g id="svg_24">
    <path id="svg_25" d="m146.4,69.8c-0.1,-6.9 0,-13.7 -0.5,-20.6c-0.6,-8.4 -5.8,-14 -13.9,-16c-5.4,-1.4 -10.9,-1.2 -16.3,-0.1c-5.3,1.1 -9.8,3.6 -13,8.1c-3.5,4.7 -3.2,5.3 2.2,7.7c2.4,1 3.8,0.7 5.2,-1.5c1.6,-2.5 3.8,-4.2 6.6,-5.2c3.8,-1.3 7.7,-1.3 11.6,-0.5c4.7,0.9 7.3,4.1 8,8.7c0.4,2.6 0.3,5.4 0.5,8.3c-2.6,-0.2 -4.8,-0.5 -7.1,-0.5c-6.4,-0.3 -13,-0.4 -19.3,1.3c-5.6,1.4 -9.6,4.7 -10.8,10.7l-0.5,4.6c-0.5,9.6 3.5,15.1 12.8,17.1c3.5,0.7 7.2,1.1 10.8,1.2c6.6,0.1 13.1,-0.3 19.3,-2.6c3.5,-1.3 4.5,-2.8 4.6,-6.6c-0.1,-4.8 -0.1,-9.4 -0.2,-14.1zm-10.1,11.5c0,0.7 -1.2,1.9 -2,2c-4.7,0.5 -9.4,0.9 -14.2,1.2c-1.4,0.1 -2.8,-0.3 -4.1,-0.5c-5,-1.1 -7,-3.6 -7,-8.5c-0.1,-5.1 2,-7.9 6.8,-9c6.8,-1.5 13.6,-0.4 20.6,0.1c-0.1,5.1 0,9.9 -0.1,14.7z" class="st0"/>
   </g>
   <g id="svg_26">
    <path id="svg_27" d="m298.5,57.1c-2.3,0 -4.3,-0.1 -6.4,0c-1.4,0.1 -2,-0.5 -2.1,-1.9c-0.2,-4.7 -0.3,-4.7 4.5,-4.7c1.3,0 2.5,0 4,0c0,-2.3 0,-4.5 0,-6.7c0,-2.5 0.3,-2.8 2.9,-2.8c4.3,-0.1 4.3,-0.1 4.3,4.2c0,1.7 0,3.5 0,5.4c1.4,0 2.6,0 4,0c2,0 3.9,0 5.8,0c0.5,0 0.9,-0.1 1.3,0.1c2.1,1.2 1,3.1 1.2,4.8c0.1,1.2 -0.6,1.8 -1.9,1.8c-3.4,-0.1 -6.7,0 -10.2,0c-0.1,0.4 -0.1,0.7 -0.1,1.1c0,6.5 0,13 0.1,19.5c0,1.1 0.1,2.2 0.4,3.3c0.7,3.3 3,4.9 7.1,5.2c0.7,0.1 1.6,0 2.3,0.1c2.1,0.1 2.4,0.4 2.5,2.6c0.1,4.3 -0.2,4.5 -4.5,4.1c-1.9,-0.1 -3.9,-0.3 -5.8,-0.7c-5.2,-1.2 -8,-4.7 -8.6,-9.7c-0.5,-3.9 -0.5,-7.9 -0.6,-11.8c-0.2,-4.8 -0.2,-9.2 -0.2,-13.9z" class="st0"/>
   </g>
   <g id="svg_28">
    <path id="svg_29" d="m284.1,62.3c0,9 0,17.8 0,26.8c0,2.5 -0.2,2.6 -2.6,2.6c-4.7,0.1 -4.4,0.1 -4.4,-4.3c0,-17.4 0,-34.7 0,-52.1c0,-2.4 0.3,-2.7 2.8,-2.8c4.3,-0.1 4.3,-0.1 4.3,4.1c-0.1,8.6 -0.1,17.2 -0.1,25.7z" class="st0"/>
   </g>
   <g id="svg_30">
    <path id="svg_31" d="m169.7,50.3c0,12.4 0,24.8 0,37.2c0,3.5 -0.3,3.7 -3.7,3.7c-6.7,0.1 -6.1,0.2 -6.1,-6.2c0,-24.1 0,-48.1 0,-72.2c0,-3.4 0.4,-3.8 3.8,-3.9c6,-0.1 6,-0.1 6,5.9c0,11.9 0,23.7 0,35.5z" class="st0"/>
   </g>
   <g id="svg_32">
    <path id="svg_33" d="m183.9,62.4c0,-8.3 0,-16.7 0,-25c0,-2.8 0.5,-3.4 3.3,-3.5c7.3,-0.1 6.4,-0.1 6.4,6.3c0,15.7 0,31.3 0,46.9c0,4 -0.1,4.1 -4,4.1c-5.8,0 -5.8,0 -5.8,-5.8c0.1,-7.6 0.1,-15.3 0.1,-23z" class="st0"/>
   </g>
   <g id="svg_34">
    <path id="svg_35" d="m263.5,92.2c-3.4,-0.1 -4.2,-0.9 -4.1,-4.4c0,-3.3 1.1,-4.3 4.4,-4.3c3.2,0 4.2,1.1 4.1,4.5c0,3.4 -0.9,4.2 -4.4,4.2z" class="st0"/>
   </g>
   <g id="svg_36">
    <path id="svg_37" d="m188.9,26c-4.5,0 -5.6,-1.1 -5.7,-5.5c-0.1,-4.5 1.2,-5.6 5.8,-5.6c4.4,0 5.6,1.2 5.6,5.6c-0.1,4.4 -1.2,5.5 -5.7,5.5z" class="st0"/>
   </g>
   <g id="svg_38">
    <path id="svg_39" d="m255.6,62.9c0.1,-3.3 0.2,-6.6 0.1,-10c-0.3,-9.8 -5.4,-16.5 -14.6,-19.3c-6.2,-1.8 -12.5,-2 -18.7,-0.5c-10,2.4 -15.5,7.9 -16.4,17.9c-0.7,7.8 -0.5,15.7 0,23.5c0.6,8.8 5.8,14.3 14.2,16.9c7.3,2.2 14.6,2.2 21.8,-0.2c7.7,-2.6 12.5,-8 13.3,-16.3m-9.7,-3.4c-0.1,6 -2.8,9.8 -8.6,11.5c-4.7,1.4 -9.6,1.3 -14.2,-0.6c-4,-1.6 -6.7,-4.5 -6.9,-9c-0.3,-7.1 -0.3,-14.2 -0.1,-21.2c0.1,-5 3.2,-8.3 7.8,-9.8c5.8,-1.9 11.7,-1.8 17.1,1.5c3.2,2 4.7,5 4.8,8.7c0.1,3.4 0,6.8 0,10.2l0,0c0.1,2.8 0.1,5.8 0.1,8.7z" class="st0"/>
   </g>
  </g>
 </g>
</svg>