<?xml version="1.0" encoding="utf-8"?>
<svg version="1.1" id="Layer_1" xmlns="http://www.w3.org/2000/svg" xmlns:xlink="http://www.w3.org/1999/xlink" x="0px" y="0px"
	 viewBox="0 0 47 40" style="enable-background:new 0 0 47 40;" xml:space="preserve">
	<path fill="#3B464B" d="M29.9,30.6h3c0.6,0,1.1-0.5,1.1-1.1v-3h-2.9c-0.7,0-1.2,0.5-1.2,1.2V30.6z"/>
	<path fill="#B2CF3E" d="M20.5,5.7v29.2c0,0.1,0,0.1,0,0.2c-0.1,0.7-0.7,1.3-1.5,1.3H6c-0.8,0-1.5-0.7-1.5-1.5V5.2
		c0-0.8,0.7-1.5,1.5-1.5h13c0.8,0,1.5,0.7,1.5,1.5V5.7L20.5,5.7z M31.9,18.5l13.8,11.1v-3.8l-11.3-9.4l5.7-4.6V7.7
		c0,0-16.4,13.1-16.4,13.1V5.2c0-1.2-0.5-2.4-1.3-3.2c-0.8-0.9-1.9-1.4-3.1-1.5c-0.1,0-0.2,0-0.3,0H6c-2.6,0-4.7,2.1-4.7,4.7v29.6
		c0,2.6,2.1,4.7,4.7,4.7h13c1.4,0,2.1-0.5,3.2-1.2c0,0,0.1,0,0.1,0.1c0.5,0.5,1.1,0.8,2,1c0.1,0,0.2,0,0.3,0.1c0.1,0,0.1,0,0.2,0
		c0.2,0,0.4,0,0.7,0h13c2.6,0,4.7-2.1,4.7-4.7v-3.8l-3.2-2.6v6.4c0,0.8-0.7,1.5-1.5,1.5h-13c-0.8,0-1.5-0.7-1.5-1.5v-9.8L31.9,18.5
		L31.9,18.5z"/>
</svg>
